<svg width="65" height="20" viewBox="0 0 65 20" fill="none" xmlns="http://www.w3.org/2000/svg">
<path d="M18.2 14.5447C18.9725 13.1547 19.377 11.5903 19.375 10C19.375 4.82251 15.1775 0.625007 10 0.625007C8.40998 0.623037 6.84582 1.02739 5.45594 1.79969L4.76876 1.11282C4.45601 0.800661 4.03219 0.625341 3.59032 0.625341C3.14845 0.625341 2.72463 0.800661 2.41188 1.11282L1.11251 2.41157C0.800329 2.72437 0.625002 3.14824 0.625002 3.59016C0.625002 4.03209 0.800329 4.45596 1.11251 4.76876L1.79969 5.45594C1.02739 6.84582 0.623037 8.40998 0.625007 10C0.625007 15.1775 4.82188 19.375 10 19.375C11.5901 19.377 13.1543 18.9726 14.5441 18.2L15.2313 18.8872C15.5441 19.1994 15.9679 19.3747 16.4099 19.3747C16.8518 19.3747 17.2756 19.1994 17.5884 18.8872L18.8872 17.5884C19.1994 17.2756 19.3747 16.8518 19.3747 16.4099C19.3747 15.9679 19.1994 15.5441 18.8872 15.2313L18.2 14.5447V14.5447ZM2.09438 3.78657C2.04244 3.73434 2.01328 3.66367 2.01328 3.59001C2.01328 3.51634 2.04244 3.44568 2.09438 3.39344L3.39376 2.09407C3.44589 2.04207 3.51653 2.01287 3.59016 2.01287C3.6638 2.01287 3.73443 2.04207 3.78657 2.09407L4.27251 2.58032C3.63893 3.0703 3.0703 3.63893 2.58032 4.27251L2.09438 3.78657V3.78657ZM10 17.3244C5.95532 17.3244 2.67594 14.0453 2.67594 10C2.67594 5.95501 5.95532 2.67594 10 2.67594C14.0447 2.67594 17.3244 5.95501 17.3244 10C17.3244 14.0453 14.0447 17.3244 10 17.3244ZM17.9059 16.6066L16.6059 17.9059C16.5538 17.9579 16.4833 17.987 16.4097 17.987C16.3361 17.987 16.2656 17.9579 16.2134 17.9059L15.7275 17.4194C16.3611 16.9297 16.9297 16.3611 17.4194 15.7275L17.9059 16.2134C17.9579 16.2657 17.987 16.3363 17.987 16.41C17.987 16.4837 17.9579 16.5543 17.9059 16.6066" fill="#4C976D"/>
<path d="M12.9884 9.69815C13.8575 11.5272 14.2628 12.1375 15.8181 10.88C17.3722 9.62346 18.0928 6.58565 12.3728 3.54658C10.8175 2.72033 8.33282 4.28565 8.61313 5.6044C8.89407 6.92377 12.1209 7.86971 12.9884 9.69815V9.69815ZM15.8266 8.18189C16.8878 8.18189 15.1747 8.76346 14.1534 9.64533C13.6584 10.0728 13.8966 8.18189 15.8266 8.18189ZM14.4103 5.84096C15.4722 5.84096 13.7591 6.42158 12.7378 7.30408C12.2444 7.73096 12.4794 5.84096 14.4103 5.84096V5.84096ZM12.1272 4.31596C13.1881 4.31596 11.4747 4.89752 10.4553 5.77814C9.95969 6.20564 10.1966 4.31596 12.1272 4.31596V4.31596ZM13.2506 13.4278C11.9822 14.33 11.2041 15.3988 11.5088 15.8163C12.0575 16.5706 12.0575 16.5706 14.3531 14.9369C15.6197 14.036 16.3997 12.966 16.095 12.5491C15.5438 11.795 15.5438 11.795 13.2506 13.4278ZM13.2953 13.0144C13.8741 13.0369 13.5131 12.5 13.5797 11.8241C13.645 11.1478 13.095 11.4944 12.0588 11.4341C11.0213 11.3738 11.3228 12.1903 11.3647 12.8428C11.4069 13.495 11.8053 12.9591 13.2953 13.0144" fill="#F15D36"/>
<path d="M9.49094 13.5175C9.13719 13.2972 8.83813 12.9963 8.57188 12.6569C8.81188 12.7541 9.10344 12.81 9.40532 12.8675C9.53626 12.8925 9.66719 12.9175 9.79094 12.9457C9.92626 12.9769 10.0309 12.9913 10.12 12.9913C10.6056 12.9913 10.6588 12.5794 10.6906 12.3328C10.7194 12.11 10.7591 11.8044 10.9591 11.401C11.0641 11.1878 11.0278 11.0269 10.9788 10.9291C10.85 10.6703 10.545 10.6122 10.1594 10.5391C9.94438 10.4982 9.70063 10.4519 9.45813 10.3682C9.28251 10.3075 9.14407 10.2794 9.02188 10.2794C8.55376 10.2794 8.43719 10.6719 8.35188 10.9582C8.30251 11.1241 8.24657 11.3128 8.13626 11.5197C8.08138 11.621 8.04398 11.7307 8.02563 11.8444C7.32188 10.6519 6.82719 9.32878 5.99282 9.02159C5.97344 9.01471 5.95313 9.01253 5.93376 9.00659C5.94751 8.97628 5.95626 8.94909 5.97188 8.91753C6.07688 8.70471 6.04063 8.54346 5.99157 8.44565C5.89282 8.24753 5.69063 8.16721 5.42844 8.10753C5.73313 7.82034 6.13626 7.39659 6.70813 6.79346C6.75282 6.74659 6.79469 6.69971 6.83751 6.65253C6.80469 6.73628 6.76563 6.82409 6.71657 6.91534C6.54719 7.23284 6.64063 7.42315 6.86251 7.55128C6.70657 7.59971 6.59438 7.67815 6.54344 7.79128C6.12782 8.7144 6.12782 8.7144 8.88219 9.9994C10.4019 10.7088 11.8216 10.8703 12.0519 10.3613C12.4681 9.43596 12.4681 9.43596 9.71313 8.15221C9.36952 7.991 9.0155 7.85298 8.65344 7.73909C8.70594 7.51971 8.68657 7.10909 8.98438 6.51003C9.19251 6.08753 8.44313 6.18034 7.66188 5.9119C7.59001 5.8869 7.52876 5.87128 7.47313 5.8594C8.03751 5.04565 8.26532 4.32753 7.98563 4.06753C7.28813 3.42096 7.28813 3.42096 5.31344 5.50128C4.49469 6.36315 3.97563 7.26034 3.92813 7.80753C3.55094 7.8644 3.44344 8.21221 3.36532 8.4744C3.31594 8.64065 3.26001 8.82909 3.14969 9.03628C3.00719 9.30346 2.98657 9.54659 3.08844 9.75909C3.18438 9.95909 3.36532 10.0857 3.59219 10.1763C3.25469 10.7 3.10594 11.3166 3.33626 11.8828C5.55657 17.3453 8.75282 17.2716 10.2641 16.1603C11.7763 15.0494 11.2172 14.5916 9.49094 13.5175V13.5175ZM4.18813 12.2728C4.47938 10.6122 6.43594 10.7488 5.92688 11.0966C4.87719 11.8166 4.02657 13.1847 4.18813 12.2728ZM6.99032 13.006C5.94063 13.7257 5.09094 15.0928 5.25157 14.1822C5.54376 12.52 7.50001 12.6569 6.99032 13.006ZM8.87813 14.4025C7.82844 15.1222 6.97938 16.49 7.13938 15.5794C7.43219 13.9178 9.38719 14.0547 8.87813 14.4025Z" fill="#F15D36"/>
<path d="M29.228 4.576V6.22H25.796V7.996H28.364V9.592H25.796V13H23.744V4.576H29.228ZM36.9185 6.304V13H34.8665V12.088C34.6585 12.384 34.3745 12.624 34.0145 12.808C33.6625 12.984 33.2705 13.072 32.8385 13.072C32.3265 13.072 31.8745 12.96 31.4825 12.736C31.0905 12.504 30.7865 12.172 30.5705 11.74C30.3545 11.308 30.2465 10.8 30.2465 10.216V6.304H32.2865V9.94C32.2865 10.388 32.4025 10.736 32.6345 10.984C32.8665 11.232 33.1785 11.356 33.5705 11.356C33.9705 11.356 34.2865 11.232 34.5185 10.984C34.7505 10.736 34.8665 10.388 34.8665 9.94V6.304H36.9185ZM37.9844 9.64C37.9844 8.952 38.1124 8.348 38.3684 7.828C38.6324 7.308 38.9884 6.908 39.4364 6.628C39.8844 6.348 40.3844 6.208 40.9364 6.208C41.3764 6.208 41.7764 6.3 42.1364 6.484C42.5044 6.668 42.7924 6.916 43.0004 7.228V4.12H45.0524V13H43.0004V12.04C42.8084 12.36 42.5324 12.616 42.1724 12.808C41.8204 13 41.4084 13.096 40.9364 13.096C40.3844 13.096 39.8844 12.956 39.4364 12.676C38.9884 12.388 38.6324 11.984 38.3684 11.464C38.1124 10.936 37.9844 10.328 37.9844 9.64ZM43.0004 9.652C43.0004 9.14 42.8564 8.736 42.5684 8.44C42.2884 8.144 41.9444 7.996 41.5364 7.996C41.1284 7.996 40.7804 8.144 40.4924 8.44C40.2124 8.728 40.0724 9.128 40.0724 9.64C40.0724 10.152 40.2124 10.56 40.4924 10.864C40.7804 11.16 41.1284 11.308 41.5364 11.308C41.9444 11.308 42.2884 11.16 42.5684 10.864C42.8564 10.568 43.0004 10.164 43.0004 9.652Z" fill="#4C976D"/>
<path d="M49.585 13.096C48.929 13.096 48.337 12.956 47.809 12.676C47.289 12.396 46.877 11.996 46.573 11.476C46.277 10.956 46.129 10.348 46.129 9.652C46.129 8.964 46.281 8.36 46.585 7.84C46.889 7.312 47.305 6.908 47.833 6.628C48.361 6.348 48.953 6.208 49.609 6.208C50.265 6.208 50.857 6.348 51.385 6.628C51.913 6.908 52.329 7.312 52.633 7.84C52.937 8.36 53.089 8.964 53.089 9.652C53.089 10.34 52.933 10.948 52.621 11.476C52.317 11.996 51.897 12.396 51.361 12.676C50.833 12.956 50.241 13.096 49.585 13.096ZM49.585 11.32C49.977 11.32 50.309 11.176 50.581 10.888C50.861 10.6 51.001 10.188 51.001 9.652C51.001 9.116 50.865 8.704 50.593 8.416C50.329 8.128 50.001 7.984 49.609 7.984C49.209 7.984 48.877 8.128 48.613 8.416C48.349 8.696 48.217 9.108 48.217 9.652C48.217 10.188 48.345 10.6 48.601 10.888C48.865 11.176 49.193 11.32 49.585 11.32ZM57.2256 13.096C56.5696 13.096 55.9776 12.956 55.4496 12.676C54.9296 12.396 54.5176 11.996 54.2136 11.476C53.9176 10.956 53.7696 10.348 53.7696 9.652C53.7696 8.964 53.9216 8.36 54.2256 7.84C54.5296 7.312 54.9456 6.908 55.4736 6.628C56.0016 6.348 56.5936 6.208 57.2496 6.208C57.9056 6.208 58.4976 6.348 59.0256 6.628C59.5536 6.908 59.9696 7.312 60.2736 7.84C60.5776 8.36 60.7296 8.964 60.7296 9.652C60.7296 10.34 60.5736 10.948 60.2616 11.476C59.9576 11.996 59.5376 12.396 59.0016 12.676C58.4736 12.956 57.8816 13.096 57.2256 13.096ZM57.2256 11.32C57.6176 11.32 57.9496 11.176 58.2216 10.888C58.5016 10.6 58.6416 10.188 58.6416 9.652C58.6416 9.116 58.5056 8.704 58.2336 8.416C57.9696 8.128 57.6416 7.984 57.2496 7.984C56.8496 7.984 56.5176 8.128 56.2536 8.416C55.9896 8.696 55.8576 9.108 55.8576 9.652C55.8576 10.188 55.9856 10.6 56.2416 10.888C56.5056 11.176 56.8336 11.32 57.2256 11.32ZM62.7782 13.096C62.4182 13.096 62.1222 12.992 61.8902 12.784C61.6662 12.568 61.5542 12.304 61.5542 11.992C61.5542 11.672 61.6662 11.404 61.8902 11.188C62.1222 10.972 62.4182 10.864 62.7782 10.864C63.1302 10.864 63.4182 10.972 63.6422 11.188C63.8742 11.404 63.9902 11.672 63.9902 11.992C63.9902 12.304 63.8742 12.568 63.6422 12.784C63.4182 12.992 63.1302 13.096 62.7782 13.096Z" fill="#F15D36"/>
<path d="M58.8289 15C59.4757 15 60.0152 15.5354 59.8247 16.1535C59.7449 16.4123 59.6382 16.6665 59.5052 16.9134C59.1786 17.52 58.6998 18.0712 58.0962 18.5355C57.4926 18.9998 56.7761 19.3681 55.9874 19.6194C55.1988 19.8707 54.3536 20 53.5 20C52.6464 20 51.8012 19.8707 51.0126 19.6194C50.2239 19.3681 49.5074 18.9998 48.9038 18.5355C48.3002 18.0712 47.8214 17.52 47.4948 16.9134C47.3618 16.6665 47.2551 16.4123 47.1753 16.1535C46.9848 15.5354 47.5243 15 48.1711 15V15C48.8179 15 49.3252 15.5489 49.6101 16.1295C49.6256 16.1612 49.6418 16.1927 49.6587 16.2239C49.8676 16.612 50.1739 16.9646 50.56 17.2616C50.9461 17.5586 51.4044 17.7941 51.9089 17.9549C52.4133 18.1156 52.954 18.1983 53.5 18.1983C54.046 18.1983 54.5867 18.1156 55.0911 17.9549C55.5956 17.7941 56.0539 17.5586 56.44 17.2616C56.8261 16.9646 57.1324 16.612 57.3413 16.2239C57.3582 16.1927 57.3744 16.1612 57.3899 16.1295C57.6748 15.5489 58.1821 15 58.8289 15V15Z" fill="#F15D36"/>
</svg>
