<svg width="20" height="20" viewBox="0 0 20 20" fill="none" xmlns="http://www.w3.org/2000/svg">
<path d="M18.2 14.5447C18.9725 13.1547 19.377 11.5903 19.375 10C19.375 4.82251 15.1775 0.625007 10 0.625007C8.40998 0.623037 6.84582 1.02739 5.45594 1.79969L4.76876 1.11282C4.45601 0.800661 4.03219 0.625341 3.59032 0.625341C3.14845 0.625341 2.72463 0.800661 2.41188 1.11282L1.11251 2.41157C0.800329 2.72437 0.625002 3.14824 0.625002 3.59016C0.625002 4.03209 0.800329 4.45596 1.11251 4.76876L1.79969 5.45594C1.02739 6.84582 0.623037 8.40998 0.625007 10C0.625007 15.1775 4.82188 19.375 10 19.375C11.5901 19.377 13.1543 18.9726 14.5441 18.2L15.2313 18.8872C15.5441 19.1994 15.9679 19.3747 16.4099 19.3747C16.8518 19.3747 17.2756 19.1994 17.5884 18.8872L18.8872 17.5884C19.1994 17.2756 19.3747 16.8518 19.3747 16.4099C19.3747 15.9679 19.1994 15.5441 18.8872 15.2313L18.2 14.5447V14.5447ZM2.09438 3.78657C2.04244 3.73434 2.01328 3.66367 2.01328 3.59001C2.01328 3.51634 2.04244 3.44568 2.09438 3.39344L3.39376 2.09407C3.44589 2.04207 3.51653 2.01287 3.59016 2.01287C3.6638 2.01287 3.73443 2.04207 3.78657 2.09407L4.27251 2.58032C3.63893 3.0703 3.0703 3.63893 2.58032 4.27251L2.09438 3.78657V3.78657ZM10 17.3244C5.95532 17.3244 2.67594 14.0453 2.67594 10C2.67594 5.95501 5.95532 2.67594 10 2.67594C14.0447 2.67594 17.3244 5.95501 17.3244 10C17.3244 14.0453 14.0447 17.3244 10 17.3244ZM17.9059 16.6066L16.6059 17.9059C16.5538 17.9579 16.4833 17.987 16.4097 17.987C16.3361 17.987 16.2656 17.9579 16.2134 17.9059L15.7275 17.4194C16.3611 16.9297 16.9297 16.3611 17.4194 15.7275L17.9059 16.2134C17.9579 16.2657 17.987 16.3363 17.987 16.41C17.987 16.4837 17.9579 16.5543 17.9059 16.6066" fill="#4C976D"/>
<path d="M12.9884 9.69815C13.8575 11.5272 14.2628 12.1375 15.8181 10.88C17.3722 9.62346 18.0928 6.58565 12.3728 3.54658C10.8175 2.72033 8.33282 4.28565 8.61313 5.6044C8.89407 6.92377 12.1209 7.86971 12.9884 9.69815V9.69815ZM15.8266 8.18189C16.8878 8.18189 15.1747 8.76346 14.1534 9.64533C13.6584 10.0728 13.8966 8.18189 15.8266 8.18189ZM14.4103 5.84096C15.4722 5.84096 13.7591 6.42158 12.7378 7.30408C12.2444 7.73096 12.4794 5.84096 14.4103 5.84096V5.84096ZM12.1272 4.31596C13.1881 4.31596 11.4747 4.89752 10.4553 5.77814C9.95969 6.20564 10.1966 4.31596 12.1272 4.31596V4.31596ZM13.2506 13.4278C11.9822 14.33 11.2041 15.3988 11.5088 15.8163C12.0575 16.5706 12.0575 16.5706 14.3531 14.9369C15.6197 14.036 16.3997 12.966 16.095 12.5491C15.5438 11.795 15.5438 11.795 13.2506 13.4278ZM13.2953 13.0144C13.8741 13.0369 13.5131 12.5 13.5797 11.8241C13.645 11.1478 13.095 11.4944 12.0588 11.4341C11.0213 11.3738 11.3228 12.1903 11.3647 12.8428C11.4069 13.495 11.8053 12.9591 13.2953 13.0144" fill="#F15D36"/>
<path d="M9.49094 13.5175C9.13719 13.2972 8.83813 12.9963 8.57188 12.6569C8.81188 12.7541 9.10344 12.81 9.40532 12.8675C9.53626 12.8925 9.66719 12.9175 9.79094 12.9457C9.92626 12.9769 10.0309 12.9913 10.12 12.9913C10.6056 12.9913 10.6588 12.5794 10.6906 12.3328C10.7194 12.11 10.7591 11.8044 10.9591 11.401C11.0641 11.1878 11.0278 11.0269 10.9788 10.9291C10.85 10.6703 10.545 10.6122 10.1594 10.5391C9.94438 10.4982 9.70063 10.4519 9.45813 10.3682C9.28251 10.3075 9.14407 10.2794 9.02188 10.2794C8.55376 10.2794 8.43719 10.6719 8.35188 10.9582C8.30251 11.1241 8.24657 11.3128 8.13626 11.5197C8.08138 11.621 8.04398 11.7307 8.02563 11.8444C7.32188 10.6519 6.82719 9.32878 5.99282 9.02159C5.97344 9.01471 5.95313 9.01253 5.93376 9.00659C5.94751 8.97628 5.95626 8.94909 5.97188 8.91753C6.07688 8.70471 6.04063 8.54346 5.99157 8.44565C5.89282 8.24753 5.69063 8.16721 5.42844 8.10753C5.73313 7.82034 6.13626 7.39659 6.70813 6.79346C6.75282 6.74659 6.79469 6.69971 6.83751 6.65253C6.80469 6.73628 6.76563 6.82409 6.71657 6.91534C6.54719 7.23284 6.64063 7.42315 6.86251 7.55128C6.70657 7.59971 6.59438 7.67815 6.54344 7.79128C6.12782 8.7144 6.12782 8.7144 8.88219 9.9994C10.4019 10.7088 11.8216 10.8703 12.0519 10.3613C12.4681 9.43596 12.4681 9.43596 9.71313 8.15221C9.36952 7.991 9.0155 7.85298 8.65344 7.73909C8.70594 7.51971 8.68657 7.10909 8.98438 6.51003C9.19251 6.08753 8.44313 6.18034 7.66188 5.9119C7.59001 5.8869 7.52876 5.87128 7.47313 5.8594C8.03751 5.04565 8.26532 4.32753 7.98563 4.06753C7.28813 3.42096 7.28813 3.42096 5.31344 5.50128C4.49469 6.36315 3.97563 7.26034 3.92813 7.80753C3.55094 7.8644 3.44344 8.21221 3.36532 8.4744C3.31594 8.64065 3.26001 8.82909 3.14969 9.03628C3.00719 9.30346 2.98657 9.54659 3.08844 9.75909C3.18438 9.95909 3.36532 10.0857 3.59219 10.1763C3.25469 10.7 3.10594 11.3166 3.33626 11.8828C5.55657 17.3453 8.75282 17.2716 10.2641 16.1603C11.7763 15.0494 11.2172 14.5916 9.49094 13.5175V13.5175ZM4.18813 12.2728C4.47938 10.6122 6.43594 10.7488 5.92688 11.0966C4.87719 11.8166 4.02657 13.1847 4.18813 12.2728ZM6.99032 13.006C5.94063 13.7257 5.09094 15.0928 5.25157 14.1822C5.54376 12.52 7.50001 12.6569 6.99032 13.006ZM8.87813 14.4025C7.82844 15.1222 6.97938 16.49 7.13938 15.5794C7.43219 13.9178 9.38719 14.0547 8.87813 14.4025Z" fill="#F15D36"/>
</svg>
